<svg data-v-fde0c5aa="" xmlns="http://www.w3.org/2000/svg" viewBox="0 0 300 300" class="iconAboveSlogan"><!----><defs data-v-fde0c5aa=""><!----></defs><rect data-v-fde0c5aa="" fill="transparent" x="0" y="0" width="300px" height="300px" class="logo-background-square"></rect><defs data-v-fde0c5aa=""><!----></defs><g data-v-fde0c5aa="" id="437f6ce8-4340-40d2-a44b-33b261de458b" fill="#000000" transform="matrix(7.073011989488641,0,0,7.073011989488641,3.34108765429326,147.15658788850777)"><path d="M2.39 10.84C2.39 12.22 2.34 12.56 2.21 12.92C2.10 13.26 1.89 13.37 1.54 13.37C1.19 13.37 0.98 13.26 0.87 12.92C0.74 12.56 0.67 12.21 0.67 10.84L0.67 2.87L0.39 2.87L0.39 10.84C0.39 12.26 0.46 12.63 0.60 13.02C0.77 13.50 1.05 13.65 1.54 13.65C2.03 13.65 2.31 13.50 2.48 13.02C2.62 12.63 2.67 12.26 2.67 10.84L2.67 2.87L2.39 2.87ZM5.81 13.47L5.81 2.87L5.53 2.87L5.53 10.01C5.53 10.53 5.53 11.12 5.56 11.58L5.50 11.58C5.45 11.12 5.38 10.63 5.29 10.15L4.06 2.87L3.51 2.87L3.51 13.47L3.79 13.47L3.79 3.35L3.85 3.35L5.59 13.47ZM6.99 13.47L6.99 2.87L6.71 2.87L6.71 13.47ZM9.18 13.47L10.15 2.87L9.87 2.87L9.09 11.54C9.03 12.15 8.99 12.71 8.96 13.13L8.90 13.13C8.88 12.71 8.83 12.15 8.78 11.54L8.02 2.87L7.74 2.87L8.68 13.47ZM12.75 13.47L12.75 13.19L11.17 13.19L11.17 8.22L12.74 8.22L12.74 7.94L11.17 7.94L11.17 3.15L12.77 3.15L12.77 2.87L10.89 2.87L10.89 13.47ZM15.89 13.47L15.89 13.41C15.85 13.08 15.83 12.87 15.75 11.13C15.69 9.90 15.64 9.30 15.58 9.00C15.53 8.71 15.37 8.55 15.22 8.51L15.22 8.46C15.29 8.41 15.39 8.37 15.47 8.25C15.67 7.97 15.81 7.50 15.81 5.73C15.81 4.59 15.75 3.84 15.57 3.39C15.41 3.02 15.19 2.87 14.84 2.87L13.57 2.87L13.57 13.47L13.85 13.47L13.85 8.62L14.67 8.62C15.09 8.62 15.26 8.76 15.30 9.03C15.36 9.34 15.41 9.95 15.47 11.14C15.55 12.89 15.57 13.08 15.61 13.47ZM13.85 8.34L13.85 3.15L14.84 3.15C15.06 3.15 15.22 3.28 15.33 3.54C15.48 3.93 15.53 4.63 15.53 5.73C15.53 7.45 15.46 7.81 15.27 8.08C15.13 8.29 14.98 8.34 14.66 8.34ZM16.53 9.93C16.51 10.21 16.49 10.57 16.49 11.20C16.49 12.07 16.53 12.56 16.65 12.92C16.80 13.44 17.04 13.65 17.50 13.65C17.93 13.65 18.20 13.43 18.38 12.99C18.56 12.54 18.62 11.94 18.62 10.81C18.62 9.24 18.55 8.89 18.27 8.50C18.00 8.15 17.61 7.90 17.29 7.57C17.16 7.45 17.00 7.25 16.91 7.07C16.79 6.78 16.76 6.51 16.76 4.96C16.76 4.09 16.81 3.63 16.95 3.30C17.07 3.07 17.22 2.97 17.51 2.97C17.79 2.97 17.98 3.09 18.09 3.30C18.24 3.60 18.31 4.03 18.31 4.87C18.31 5.50 18.28 5.94 18.26 6.16L18.54 6.16C18.56 5.94 18.59 5.50 18.59 4.87C18.59 3.95 18.52 3.50 18.34 3.16C18.16 2.84 17.92 2.69 17.51 2.69C17.11 2.69 16.87 2.84 16.70 3.19C16.53 3.54 16.48 4.06 16.48 4.96C16.48 6.52 16.51 6.83 16.66 7.18C16.77 7.43 16.93 7.60 17.09 7.77C17.42 8.09 17.82 8.33 18.05 8.67C18.28 8.99 18.34 9.37 18.34 10.81C18.34 11.93 18.28 12.49 18.13 12.88C18.00 13.23 17.82 13.37 17.50 13.37C17.21 13.37 17.05 13.20 16.93 12.84C16.81 12.47 16.77 12.00 16.77 11.20C16.77 10.58 16.79 10.19 16.81 9.93ZM21.46 13.47L20.58 2.87L20.08 2.87L19.11 13.47L19.39 13.47L19.68 10.14L20.90 10.14L21.18 13.47ZM20.89 9.86L19.71 9.86L20.20 4.44C20.24 3.98 20.29 3.58 20.30 3.16L20.36 3.16C20.37 3.58 20.41 3.98 20.44 4.44ZM23.98 13.47L23.98 13.19L22.48 13.19L22.48 2.87L22.20 2.87L22.20 13.47ZM25.61 8.26L25.61 7.98L23.79 7.98L23.79 8.26ZM27.73 13.47C28.06 13.47 28.27 13.33 28.42 13.01C28.63 12.56 28.70 12.12 28.70 10.61C28.70 8.71 28.62 8.50 28.49 8.26C28.43 8.16 28.32 8.04 28.20 8.01L28.20 7.95C28.31 7.88 28.43 7.76 28.48 7.63C28.59 7.34 28.64 7.14 28.64 5.73C28.64 4.30 28.56 3.74 28.38 3.32C28.24 2.98 28.04 2.87 27.66 2.87L26.40 2.87L26.40 13.47ZM26.68 13.19L26.68 8.13L27.55 8.13C27.99 8.13 28.10 8.19 28.24 8.40C28.39 8.64 28.42 8.72 28.42 10.61C28.42 12.18 28.36 12.45 28.20 12.84C28.07 13.12 27.97 13.19 27.73 13.19ZM26.68 7.85L26.68 3.15L27.66 3.15C27.90 3.15 28.04 3.23 28.14 3.44C28.31 3.81 28.36 4.33 28.36 5.73C28.36 7.15 28.34 7.35 28.21 7.59C28.08 7.83 27.97 7.85 27.55 7.85ZM29.60 12.78C29.74 13.44 29.99 13.65 30.53 13.65C31.07 13.65 31.32 13.44 31.47 12.78C31.61 12.14 31.67 11.49 31.67 8.16C31.67 4.83 31.61 4.21 31.47 3.56C31.32 2.91 31.07 2.69 30.53 2.69C29.99 2.69 29.74 2.91 29.60 3.56C29.44 4.21 29.39 4.83 29.39 8.16C29.39 11.49 29.44 12.14 29.60 12.78ZM31.19 12.73C31.09 13.22 30.91 13.37 30.53 13.37C30.16 13.37 29.97 13.22 29.86 12.73C29.72 12.12 29.67 11.49 29.67 8.16C29.67 4.84 29.74 4.24 29.88 3.61C29.99 3.14 30.16 2.97 30.53 2.97C30.91 2.97 31.11 3.14 31.21 3.63C31.35 4.27 31.39 4.89 31.39 8.16C31.39 11.44 31.33 12.08 31.19 12.73ZM32.77 13.47L32.77 2.87L32.49 2.87L32.49 13.47ZM35.46 13.47L35.46 13.19L33.96 13.19L33.96 2.87L33.68 2.87L33.68 13.47ZM37.94 13.47L37.94 13.19L36.36 13.19L36.36 8.22L37.93 8.22L37.93 7.94L36.36 7.94L36.36 3.15L37.95 3.15L37.95 2.87L36.08 2.87L36.08 13.47ZM41.08 13.47L41.08 13.41C41.03 13.08 41.02 12.87 40.94 11.13C40.88 9.90 40.82 9.30 40.77 9.00C40.71 8.71 40.56 8.55 40.40 8.51L40.40 8.46C40.47 8.41 40.57 8.37 40.66 8.25C40.85 7.97 40.99 7.50 40.99 5.73C40.99 4.59 40.94 3.84 40.75 3.39C40.60 3.02 40.38 2.87 40.03 2.87L38.75 2.87L38.75 13.47L39.03 13.47L39.03 8.62L39.86 8.62C40.28 8.62 40.45 8.76 40.49 9.03C40.54 9.34 40.60 9.95 40.66 11.14C40.74 12.89 40.75 13.08 40.80 13.47ZM39.03 8.34L39.03 3.15L40.03 3.15C40.25 3.15 40.40 3.28 40.52 3.54C40.67 3.93 40.71 4.63 40.71 5.73C40.71 7.45 40.64 7.81 40.46 8.08C40.32 8.29 40.17 8.34 39.84 8.34Z"></path></g><defs data-v-fde0c5aa=""><linearGradient data-v-fde0c5aa="" gradientTransform="rotate(25)" id="14a9e355-b2cb-443d-8476-6127afa62517" x1="0%" y1="0%" x2="100%" y2="0%"><stop data-v-fde0c5aa="" offset="0%" stop-color="#4E1A70" stop-opacity="1"></stop><stop data-v-fde0c5aa="" offset="100%" stop-color="#2B4CF2" stop-opacity="1"></stop></linearGradient></defs><g data-v-fde0c5aa="" id="b19f8dcb-46ee-437b-883e-361aa1999c2e" stroke="none" fill="url(#14a9e355-b2cb-443d-8476-6127afa62517)" transform="matrix(1.2479617691914857,0,0,1.2479617691914857,86.84270710669881,25.648439654297913)"><path d="M89.437 64.428l-3.208-4.237a2 2 0 0 0-.073-.318l-1.281-3.789a2.009 2.009 0 0 0-.486-.78l-3.177-3.148a2.004 2.004 0 0 0-2.829.013 2.002 2.002 0 0 0 .013 2.829l2.842 2.815.489 1.447-8.641 2.925.081-5.639a1.997 1.997 0 0 0-.586-1.443l-7.519-7.516A1.994 1.994 0 0 0 63.647 47H50.416c3.533-2.723 5.841-7.05 5.889-11.938 1.552-.53 2.857-1.204 3.659-2.062h1.786a1.999 1.999 0 1 0 1.649-3.133l-2.75-4a1.992 1.992 0 0 0-.628-.562C57.689 17.234 50.499 11.5 41.75 11.5c-8.949 0-16.255 6.006-18.409 14.37l-3.143 3.869A2 2 0 0 0 21.75 33h1.805c.802.838 2.096 1.501 3.636 2.025.037 4.904 2.35 9.246 5.892 11.975H20.435c-.552 0-1.08.228-1.458.631l-7.06 7.516a2 2 0 0 0-.075 2.654l9.625 11.484A2 2 0 0 0 25 68v-3c0-.215-.035-.429-.103-.633L23.107 59h3.142l.225.344.297 8.647-.021 5.069c.065 2.156.814 4.213 2.015 5.951a1.993 1.993 0 0 0-.037 1.918l8.5 16.189A2.002 2.002 0 0 0 41 96.189V84h3v12.189a2 2 0 0 0 3.814.841l7.5-16.189a1.996 1.996 0 0 0-.354-2.204c1.063-1.672 1.728-3.608 1.789-5.646l-.023-4.923.303-8.874.305-.194h5.529l4.61 5.087a1.997 1.997 0 0 0 1.326 3.77l.201-.069V68a2 2 0 0 0 1.985 2A1.982 1.982 0 0 0 73 68.029l.023-1.603 9.014-3.05.016 3.549a1.998 1.998 0 0 0 2.641 1.886l3.789-1.282a2 2 0 0 0 .954-3.101zm-36.55 8.511C52.775 76.635 49.3 80 45.746 80h-7.992c-3.554 0-6.893-3.365-7.004-6.991L30.77 68H53v.009l-.113 4.93zM38 64V51h8v13h-8zm3.75-48.5c8.292 0 14.822 6.554 15.066 15.009-.51.336-1.627.758-3.218 1.159a32.867 32.867 0 0 1-2.009.44c-.203.039-.409.078-.622.115a55.13 55.13 0 0 1-7.16.739l-.064.003c-.51.019-1.02.032-1.526.037l-.507.002a51.27 51.27 0 0 1-1.514-.023l-.272-.011a53.4 53.4 0 0 1-1.261-.056l-.304-.019a58.186 58.186 0 0 1-1.193-.087l-.359-.031c-.363-.033-.724-.07-1.082-.11-.139-.016-.283-.029-.419-.046a47.742 47.742 0 0 1-1.2-.158c-.298-.042-.585-.089-.87-.135l-.321-.052c-.298-.05-.589-.103-.872-.156l-.235-.046c-.399-.079-.777-.16-1.14-.242-.256-.06-.512-.119-.756-.182-1.303-.33-2.309-.677-2.913-.984v-2.869C28.4 20.694 34.371 15.5 41.75 15.5zM31.24 36.042c.099.019.208.032.309.05.355.063.712.121 1.068.175 2.511.404 5.245.65 7.931.707.701.023 1.132.026 1.16.026h.002v.001l.548-.001c.137-.001.84-.011 1.89-.06a60.453 60.453 0 0 0 3.987-.293 61.023 61.023 0 0 0 1.734-.201l.047-.006a48.992 48.992 0 0 0 2.339-.365c-.558 5.564-5.056 9.915-10.504 9.915-5.461-.001-9.967-4.369-10.511-9.948zM20.332 55a2.003 2.003 0 0 0-1.898 2.633l1.001 3-3.388-4.042L21.3 51H34v13h-3.364l-.183-5.351a2.008 2.008 0 0 0-.324-1.025l-1.122-1.718c-.37-.565-1-.906-1.675-.906h-7zm14.246 28.465a9.964 9.964 0 0 0 2.422.493v4.12l-2.422-4.613zM48 83.726a10.397 10.397 0 0 0 1.861-.628L48 87.114v-3.388zM63.75 55h-7c-.382 0-.755.109-1.076.314L53.99 56.39c-.556.354-.9.959-.923 1.617L52.863 64H50V51h12.819l6.335 6.332-.038 2.611-3.884-4.286A1.998 1.998 0 0 0 63.75 55z"></path></g><defs data-v-fde0c5aa=""><!----></defs><g data-v-fde0c5aa="" id="fd5fcd46-f3f2-4235-bb96-00aa65fc6211" fill="#000000" transform="matrix(0.6328446274336683,0,0,0.6328446274336683,41.74559263565936,251.86794599430246)"><path d="M0.52 3.51C0.52 3.75 0.60 3.79 0.77 3.79L1.62 3.77C1.68 3.77 1.74 5.52 1.74 7.11L1.74 11.63C1.74 11.93 1.72 12.18 1.69 12.18L0.97 12.18C0.74 12.18 0.67 12.19 0.67 12.39C0.67 12.63 0.70 12.68 0.90 12.68C1.02 12.68 1.97 12.64 2.39 12.64C2.58 12.64 3.09 12.67 3.74 12.67C5.29 12.67 7.70 12.43 7.70 10.23C7.70 8.27 5.88 7.94 5.19 7.84C5.11 7.83 5.10 7.83 5.10 7.81C5.10 7.80 5.14 7.78 5.21 7.76C5.85 7.52 7.29 6.90 7.29 5.54C7.29 3.81 5.82 3.25 4.14 3.25C3.57 3.25 2.97 3.29 2.42 3.29C2.00 3.29 0.99 3.26 0.77 3.26C0.59 3.26 0.52 3.28 0.52 3.51ZM2.97 8.19C2.97 8.12 2.97 8.08 3.08 8.08L3.56 8.08C4.17 8.08 4.82 8.09 5.19 8.22C6.06 8.51 6.38 9.16 6.38 10.14C6.38 11.17 5.92 12.18 3.91 12.18L3.07 12.18C2.98 12.18 2.97 9.02 2.97 8.19ZM2.97 7.59L2.97 6.92C2.97 5.87 2.98 3.71 3.02 3.68C3.08 3.65 3.39 3.63 3.60 3.63C5.01 3.63 6.03 4.41 6.03 5.77C6.03 6.92 5.31 7.46 4.68 7.66C4.59 7.69 4.49 7.70 4.41 7.70C4.33 7.70 4.19 7.69 3.95 7.69L3.15 7.69C2.97 7.69 2.97 7.67 2.97 7.59ZM15.81 8.15C15.81 11.17 18.14 12.80 20.40 12.80C23.18 12.80 25.16 10.89 25.16 8.06C25.16 5.33 23.41 3.11 20.61 3.11C18.00 3.11 15.81 5.10 15.81 8.15ZM17.21 7.77C17.21 5.64 18.49 3.58 20.47 3.58C22.71 3.58 23.79 5.81 23.79 7.94C23.79 10.08 22.68 12.32 20.41 12.32C18.42 12.32 17.21 10.28 17.21 7.77ZM33.12 12.39C33.12 12.63 33.17 12.68 33.36 12.68C33.68 12.68 34.44 12.64 35.15 12.64C35.81 12.64 36.61 12.68 36.83 12.68C37.00 12.68 37.03 12.61 37.03 12.40C37.03 12.24 37.00 12.18 36.83 12.18L35.87 12.18C35.77 12.18 35.74 9.55 35.74 7.76L35.74 5.87C35.74 5.14 35.77 3.70 35.87 3.70L36.78 3.70C37.00 3.70 37.03 3.68 37.03 3.49C37.03 3.25 37.00 3.19 36.83 3.19C36.51 3.19 35.84 3.23 35.18 3.23C34.37 3.23 33.66 3.19 33.43 3.19C33.25 3.19 33.18 3.21 33.18 3.44C33.18 3.68 33.26 3.70 33.43 3.70L34.36 3.70C34.40 3.70 34.47 4.79 34.47 5.71L34.47 7.08C34.47 8.92 34.45 12.18 34.34 12.18L33.42 12.18C33.19 12.18 33.12 12.19 33.12 12.39ZM44.93 12.39C44.93 12.63 44.95 12.68 45.15 12.68C45.47 12.68 46.44 12.64 46.86 12.64C47.28 12.64 51.63 12.68 51.95 12.68C52.22 12.68 52.29 12.66 52.30 12.49C52.36 12.08 52.60 10.72 52.60 10.60C52.60 10.47 52.44 10.44 52.28 10.43C52.18 10.42 52.09 10.46 52.08 10.56L51.91 11.76C51.87 12.05 51.86 12.03 51.63 12.04C51.48 12.05 48.97 12.12 47.54 12.12C47.50 12.12 47.46 11.38 47.46 10.54L47.46 6.66C47.46 5.40 47.47 3.70 47.57 3.70L48.55 3.70C48.79 3.70 48.82 3.63 48.82 3.44C48.82 3.23 48.80 3.19 48.57 3.19C48.24 3.19 47.31 3.23 46.89 3.23C46.47 3.23 45.53 3.19 45.30 3.19C45.08 3.19 45.02 3.22 45.02 3.44C45.02 3.65 45.07 3.70 45.26 3.70L46.09 3.70C46.13 3.70 46.16 4.23 46.16 4.90L46.16 8.13C46.16 10.07 46.13 12.18 46.05 12.18L45.21 12.18C44.98 12.18 44.93 12.21 44.93 12.39ZM60.21 12.39C60.21 12.63 60.24 12.68 60.44 12.68C60.76 12.68 61.73 12.64 62.15 12.64C62.57 12.64 67.07 12.68 67.40 12.68C67.52 12.68 67.68 12.66 67.68 12.49C67.68 12.07 67.72 11.23 67.72 10.53C67.72 10.39 67.56 10.39 67.44 10.39C67.33 10.39 67.20 10.39 67.20 10.51C67.19 11.06 67.19 11.41 67.16 11.76C67.13 12.01 67.13 12.04 67.03 12.04C66.88 12.04 64.25 12.08 62.75 12.08C62.68 12.08 62.64 10.11 62.59 8.26C62.59 8.06 62.64 8.09 62.78 8.09L65.06 8.09C65.76 8.09 65.79 8.20 65.79 8.30L65.79 9.00C65.79 9.14 65.97 9.14 66.08 9.14C66.18 9.14 66.30 9.13 66.30 9.02C66.30 8.83 66.28 8.33 66.28 7.83C66.28 7.32 66.30 6.83 66.30 6.71C66.30 6.59 66.16 6.58 66.07 6.58C65.95 6.58 65.79 6.59 65.79 6.72L65.79 7.45C65.79 7.62 65.34 7.63 65.06 7.63L62.72 7.63C62.61 7.63 62.59 7.63 62.59 7.45C62.58 6.75 62.57 6.06 62.57 5.46C62.57 5.12 62.57 3.71 62.65 3.71C63.88 3.71 66.39 3.75 66.39 3.81C66.39 3.99 66.35 4.83 66.35 4.89C66.35 5.04 66.42 5.10 66.60 5.10C66.79 5.10 66.86 5.08 66.86 4.94C66.86 3.85 66.92 3.36 66.92 3.09C66.92 2.91 66.84 2.90 66.64 2.90C66.44 2.90 66.44 2.95 66.42 3.11C66.40 3.25 66.47 3.25 65.56 3.25C64.95 3.25 62.80 3.29 62.03 3.29C61.54 3.29 60.61 3.25 60.51 3.25C60.38 3.25 60.33 3.30 60.33 3.49C60.33 3.72 60.40 3.74 60.56 3.74L61.22 3.74C61.28 3.74 61.35 4.79 61.35 5.71C61.35 5.80 61.40 8.27 61.40 9.83L61.40 11.17C61.40 11.84 61.38 12.18 61.35 12.18L60.49 12.18C60.27 12.18 60.21 12.21 60.21 12.39ZM75.68 3.51C75.68 3.72 75.75 3.79 75.95 3.79L76.76 3.77C76.86 3.77 76.90 6.61 76.90 8.55L76.90 10.42C76.90 11.30 76.89 12.18 76.85 12.18L76.24 12.18C76.02 12.18 75.95 12.19 75.95 12.39C75.95 12.63 75.99 12.68 76.19 12.68C76.31 12.68 77.14 12.64 77.56 12.64C77.98 12.64 78.75 12.68 79.07 12.68C79.24 12.68 79.27 12.61 79.27 12.40C79.27 12.24 79.24 12.18 79.07 12.18L78.26 12.18C78.19 12.18 78.11 9.18 78.11 8.37C78.11 8.30 78.11 8.26 78.22 8.26C78.61 8.26 79.21 8.27 79.51 8.27C81.75 8.32 81.89 10.00 81.89 11.68L81.89 12.49C81.89 12.61 81.94 12.64 82.04 12.64C82.04 12.64 83.48 12.68 83.96 12.68C84.13 12.68 84.18 12.64 84.18 12.53C84.18 12.24 84.13 12.18 83.97 12.18L83.33 12.18C83.23 12.18 83.20 12.14 83.17 11.31C83.09 8.99 81.72 8.34 80.81 8.05C80.67 8.01 80.70 8.01 80.81 7.95C81.40 7.69 82.71 6.94 82.71 5.63C82.71 3.63 81.02 3.21 79.62 3.21C79.30 3.21 78.01 3.29 77.59 3.29C77.17 3.29 76.19 3.26 75.96 3.26C75.78 3.26 75.68 3.28 75.68 3.51ZM78.11 7.80L78.11 4.40C78.11 4.05 78.13 3.68 78.18 3.68C78.39 3.65 78.67 3.65 78.89 3.65C80.19 3.65 81.44 4.47 81.44 5.82C81.44 6.99 80.89 7.57 80.23 7.88C80.19 7.90 80.15 7.90 80.08 7.90C79.60 7.88 78.89 7.88 78.29 7.87C78.12 7.87 78.11 7.85 78.11 7.80ZM91.66 3.51C91.66 3.75 91.70 3.79 91.91 3.79L92.83 3.77C92.89 3.77 92.89 4.47 92.89 5.24L92.89 5.96C92.89 7.70 92.88 12.18 92.76 12.18L92.09 12.18C91.87 12.18 91.80 12.19 91.80 12.39C91.80 12.63 91.81 12.68 92.01 12.68C92.13 12.68 93.11 12.64 93.53 12.64C93.95 12.64 94.82 12.68 95.14 12.68C95.31 12.68 95.34 12.61 95.34 12.40C95.34 12.24 95.31 12.18 95.14 12.18L94.15 12.18C94.11 12.18 94.09 10.60 94.09 9.58L94.09 8.65C94.09 8.57 94.09 8.54 94.19 8.54C94.58 8.54 94.91 8.58 95.41 8.58C97.40 8.58 98.80 7.83 98.80 6.01C98.80 4.09 97.31 3.22 95.40 3.22C95.07 3.22 93.98 3.29 93.56 3.29C93.32 3.29 92.13 3.26 91.91 3.26C91.73 3.26 91.66 3.28 91.66 3.51ZM94.11 8.05L94.11 4.40C94.11 4.05 94.12 3.70 94.16 3.68C94.29 3.67 94.46 3.67 94.60 3.67C96.25 3.67 97.51 4.47 97.51 5.80C97.51 7.57 96.18 8.19 94.60 8.19C94.35 8.19 94.11 8.16 94.11 8.05ZM106.55 12.39C106.55 12.63 106.58 12.68 106.78 12.68C107.10 12.68 108.07 12.64 108.49 12.64C108.91 12.64 113.26 12.68 113.58 12.68C113.85 12.68 113.92 12.66 113.93 12.49C113.99 12.08 114.23 10.72 114.23 10.60C114.23 10.47 114.07 10.44 113.90 10.43C113.81 10.42 113.72 10.46 113.71 10.56L113.54 11.76C113.50 12.05 113.48 12.03 113.26 12.04C113.11 12.05 110.60 12.12 109.17 12.12C109.13 12.12 109.09 11.38 109.09 10.54L109.09 6.66C109.09 5.40 109.10 3.70 109.20 3.70L110.18 3.70C110.42 3.70 110.45 3.63 110.45 3.44C110.45 3.23 110.43 3.19 110.19 3.19C109.87 3.19 108.93 3.23 108.51 3.23C108.09 3.23 107.16 3.19 106.93 3.19C106.71 3.19 106.65 3.22 106.65 3.44C106.65 3.65 106.69 3.70 106.89 3.70L107.72 3.70C107.76 3.70 107.79 4.23 107.79 4.90L107.79 8.13C107.79 10.07 107.76 12.18 107.67 12.18L106.83 12.18C106.61 12.18 106.55 12.21 106.55 12.39ZM121.70 12.39C121.70 12.63 121.70 12.68 121.90 12.68C122.07 12.68 122.39 12.64 122.96 12.64C123.58 12.64 124.12 12.68 124.28 12.68C124.45 12.68 124.45 12.61 124.45 12.40C124.45 12.24 124.45 12.18 124.28 12.18L123.20 12.18C123.20 12.18 123.19 12.18 123.19 12.17C123.20 11.87 123.97 9.90 124.32 9.02C124.39 8.83 124.40 8.79 124.61 8.79L127.44 8.79C127.58 8.79 127.58 8.81 127.65 9.03C127.92 9.77 128.63 11.89 128.63 12.17C128.63 12.18 128.62 12.18 128.62 12.18L127.85 12.18C127.62 12.18 127.61 12.19 127.61 12.39C127.61 12.63 127.62 12.68 127.79 12.68C128.11 12.68 128.98 12.64 129.40 12.64C129.82 12.64 130.49 12.68 130.70 12.68C130.84 12.68 130.86 12.61 130.86 12.40C130.86 12.24 130.84 12.18 130.70 12.18L130.21 12.18C130.12 12.18 129.09 9.34 128.53 7.78L126.85 3.07C126.84 3.00 126.77 2.94 126.69 2.94C126.56 2.94 126.46 3.16 126.38 3.35C126.22 3.71 125.99 3.84 125.87 4.13L124.39 7.57C124.21 8.01 122.50 12.18 122.37 12.18L121.95 12.18C121.73 12.18 121.70 12.19 121.70 12.39ZM124.60 8.33C124.60 8.30 124.63 8.23 124.67 8.13L126.04 4.77C126.08 4.66 126.11 4.61 126.14 4.61C126.15 4.61 126.17 4.63 126.21 4.77L127.37 8.18C127.40 8.25 127.41 8.29 127.41 8.32C127.41 8.36 127.39 8.37 127.29 8.37L124.78 8.37C124.60 8.37 124.60 8.34 124.60 8.33ZM136.95 5.01C136.95 5.17 137.13 5.17 137.26 5.17C137.41 5.17 137.45 5.15 137.47 4.97L137.58 3.89C137.59 3.81 138.14 3.75 138.89 3.75L140.88 3.75C140.94 3.75 140.97 4.35 140.97 4.97C140.97 6.43 140.91 12.18 140.78 12.18L139.92 12.18C139.69 12.18 139.65 12.19 139.65 12.39C139.65 12.63 139.66 12.68 139.86 12.68C140.18 12.68 141.16 12.64 141.58 12.64C142.00 12.64 142.94 12.68 143.26 12.68C143.43 12.68 143.46 12.61 143.46 12.40C143.46 12.24 143.43 12.18 143.26 12.18L142.27 12.18C142.24 12.18 142.24 11.76 142.24 11.31C142.24 9.56 142.32 5.96 142.32 5.92C142.34 5.18 142.34 3.75 142.44 3.75L144.05 3.75C144.76 3.75 145.59 3.78 145.59 3.85C145.59 3.99 145.54 4.90 145.54 4.97C145.54 5.12 145.61 5.17 145.80 5.17C145.99 5.17 146.06 5.17 146.06 5.03C146.06 3.93 146.12 3.40 146.12 3.14C146.12 2.94 146.03 2.94 145.84 2.94C145.68 2.94 145.63 2.98 145.61 3.16C145.61 3.23 144.97 3.28 144.13 3.28L139.13 3.28C138.47 3.28 137.66 3.28 137.66 3.21L137.66 3.07C137.66 2.94 137.54 2.94 137.44 2.94C137.21 2.94 137.19 3.00 137.17 3.19C137.12 3.89 136.95 4.97 136.95 5.01ZM153.87 12.39C153.87 12.63 153.90 12.68 154.10 12.68C154.42 12.68 155.39 12.64 155.81 12.64C156.23 12.64 160.73 12.68 161.06 12.68C161.18 12.68 161.34 12.66 161.34 12.49C161.34 12.07 161.38 11.23 161.38 10.53C161.38 10.39 161.22 10.39 161.10 10.39C160.99 10.39 160.86 10.39 160.86 10.51C160.85 11.06 160.85 11.41 160.82 11.76C160.79 12.01 160.79 12.04 160.69 12.04C160.54 12.04 157.91 12.08 156.41 12.08C156.34 12.08 156.30 10.11 156.25 8.26C156.25 8.06 156.30 8.09 156.44 8.09L158.72 8.09C159.42 8.09 159.45 8.20 159.45 8.30L159.45 9.00C159.45 9.14 159.63 9.14 159.74 9.14C159.84 9.14 159.96 9.13 159.96 9.02C159.96 8.83 159.94 8.33 159.94 7.83C159.94 7.32 159.96 6.83 159.96 6.71C159.96 6.59 159.82 6.58 159.73 6.58C159.61 6.58 159.45 6.59 159.45 6.72L159.45 7.45C159.45 7.62 159.00 7.63 158.72 7.63L156.38 7.63C156.27 7.63 156.25 7.63 156.25 7.45C156.24 6.75 156.23 6.06 156.23 5.46C156.23 5.12 156.23 3.71 156.31 3.71C157.54 3.71 160.05 3.75 160.05 3.81C160.05 3.99 160.01 4.83 160.01 4.89C160.01 5.04 160.08 5.10 160.26 5.10C160.45 5.10 160.52 5.08 160.52 4.94C160.52 3.85 160.58 3.36 160.58 3.09C160.58 2.91 160.50 2.90 160.30 2.90C160.10 2.90 160.10 2.95 160.08 3.11C160.06 3.25 160.13 3.25 159.22 3.25C158.61 3.25 156.46 3.29 155.69 3.29C155.20 3.29 154.27 3.25 154.17 3.25C154.04 3.25 153.99 3.30 153.99 3.49C153.99 3.72 154.06 3.74 154.22 3.74L154.88 3.74C154.94 3.74 155.01 4.79 155.01 5.71C155.01 5.80 155.06 8.27 155.06 9.83L155.06 11.17C155.06 11.84 155.04 12.18 155.01 12.18L154.15 12.18C153.93 12.18 153.87 12.21 153.87 12.39ZM179.07 12.39C179.07 12.63 179.10 12.68 179.30 12.68C179.54 12.68 180.04 12.64 180.46 12.64C180.88 12.64 181.37 12.68 181.69 12.68C181.86 12.68 181.89 12.61 181.89 12.40C181.89 12.24 181.86 12.18 181.69 12.18L180.73 12.18C180.67 12.18 180.66 11.54 180.66 10.79C180.66 8.96 180.70 6.13 180.77 4.28C180.80 3.88 180.82 3.91 180.96 4.27L184.23 12.32C184.32 12.54 184.39 12.74 184.51 12.74C184.60 12.74 184.67 12.63 184.76 12.45C185.09 11.79 185.28 11.75 185.54 11.09L188.13 4.47C188.26 4.16 188.30 4.02 188.31 4.47C188.34 5.66 188.38 8.47 188.38 9.74C188.38 10.99 188.34 12.18 188.29 12.18L187.66 12.18C187.43 12.18 187.36 12.19 187.36 12.39C187.36 12.63 187.39 12.68 187.59 12.68C187.78 12.68 188.48 12.64 189.08 12.64C189.50 12.64 190.26 12.68 190.58 12.68C190.75 12.68 190.78 12.61 190.78 12.40C190.78 12.22 190.72 12.18 190.55 12.18L189.83 12.18C189.71 12.18 189.62 8.44 189.62 6.03L189.62 4.77C189.62 4.17 189.64 3.77 189.69 3.70L190.34 3.70C190.57 3.70 190.61 3.68 190.61 3.49C190.61 3.25 190.60 3.19 190.40 3.19C190.08 3.19 189.39 3.23 188.97 3.23L188.30 3.23C188.08 3.23 188.05 3.29 187.94 3.58L185.19 10.72C185.11 10.95 185.08 11.02 184.97 10.74L182.03 3.40C181.96 3.22 181.90 3.19 181.76 3.19C181.68 3.19 181.19 3.23 180.88 3.23C180.38 3.23 179.52 3.19 179.33 3.19C179.19 3.19 179.19 3.26 179.19 3.47C179.19 3.64 179.19 3.70 179.33 3.70L180.03 3.70C180.29 3.70 180.29 3.72 180.29 3.84C180.29 4.82 180.08 9.94 180.04 10.79C180.00 11.55 180.00 12.18 179.94 12.18L179.37 12.18C179.14 12.18 179.07 12.19 179.07 12.39ZM198.53 12.39C198.53 12.63 198.53 12.68 198.73 12.68C198.90 12.68 199.22 12.64 199.79 12.64C200.41 12.64 200.96 12.68 201.11 12.68C201.28 12.68 201.28 12.61 201.28 12.40C201.28 12.24 201.28 12.18 201.11 12.18L200.03 12.18C200.03 12.18 200.02 12.18 200.02 12.17C200.03 11.87 200.80 9.90 201.15 9.02C201.22 8.83 201.24 8.79 201.45 8.79L204.27 8.79C204.41 8.79 204.41 8.81 204.48 9.03C204.75 9.77 205.46 11.89 205.46 12.17C205.46 12.18 205.45 12.18 205.45 12.18L204.68 12.18C204.46 12.18 204.44 12.19 204.44 12.39C204.44 12.63 204.46 12.68 204.62 12.68C204.95 12.68 205.81 12.64 206.23 12.64C206.65 12.64 207.33 12.68 207.54 12.68C207.68 12.68 207.69 12.61 207.69 12.40C207.69 12.24 207.68 12.18 207.54 12.18L207.05 12.18C206.95 12.18 205.93 9.34 205.37 7.78L203.69 3.07C203.67 3.00 203.60 2.94 203.52 2.94C203.39 2.94 203.29 3.16 203.21 3.35C203.06 3.71 202.82 3.84 202.71 4.13L201.22 7.57C201.04 8.01 199.33 12.18 199.21 12.18L198.79 12.18C198.56 12.18 198.53 12.19 198.53 12.39ZM201.43 8.33C201.43 8.30 201.46 8.23 201.50 8.13L202.87 4.77C202.92 4.66 202.94 4.61 202.97 4.61C202.99 4.61 203 4.63 203.04 4.77L204.20 8.18C204.23 8.25 204.25 8.29 204.25 8.32C204.25 8.36 204.22 8.37 204.12 8.37L201.61 8.37C201.43 8.37 201.43 8.34 201.43 8.33ZM215.38 12.46C215.38 12.63 215.39 12.70 215.57 12.70C215.73 12.70 216.96 12.64 217.35 12.64C218.20 12.64 219.09 12.70 219.94 12.70C222.56 12.70 224.95 11.07 224.95 7.91C224.95 4.89 222.61 3.07 219.58 3.07C219.02 3.07 217.76 3.23 216.72 3.23C216.24 3.23 215.78 3.22 215.73 3.22C215.54 3.22 215.53 3.32 215.53 3.49C215.53 3.68 215.60 3.70 215.73 3.70L216.69 3.67C216.72 3.67 216.72 4.20 216.72 4.72C216.72 5.91 216.64 12.21 216.55 12.21L215.66 12.21C215.47 12.21 215.38 12.22 215.38 12.46ZM217.95 11.40C217.95 9.46 217.95 7.52 217.97 5.60C217.97 5.03 218.01 3.61 218.05 3.60C218.34 3.53 218.93 3.51 219.28 3.51C221.84 3.51 223.45 5.75 223.45 7.73C223.45 8.95 223.41 12.25 218.74 12.25C218.47 12.25 218.06 12.25 217.97 12.21C217.95 12.19 217.95 11.79 217.95 11.40ZM233.06 12.39C233.06 12.63 233.09 12.68 233.28 12.68C233.60 12.68 234.57 12.64 234.99 12.64C235.41 12.64 239.92 12.68 240.24 12.68C240.37 12.68 240.52 12.66 240.52 12.49C240.52 12.07 240.56 11.23 240.56 10.53C240.56 10.39 240.41 10.39 240.28 10.39C240.17 10.39 240.04 10.39 240.04 10.51C240.03 11.06 240.03 11.41 240.00 11.76C239.97 12.01 239.97 12.04 239.88 12.04C239.72 12.04 237.09 12.08 235.59 12.08C235.52 12.08 235.48 10.11 235.44 8.26C235.44 8.06 235.48 8.09 235.62 8.09L237.90 8.09C238.60 8.09 238.63 8.20 238.63 8.30L238.63 9.00C238.63 9.14 238.81 9.14 238.92 9.14C239.02 9.14 239.15 9.13 239.15 9.02C239.15 8.83 239.12 8.33 239.12 7.83C239.12 7.32 239.15 6.83 239.15 6.71C239.15 6.59 239.01 6.58 238.91 6.58C238.80 6.58 238.63 6.59 238.63 6.72L238.63 7.45C238.63 7.62 238.18 7.63 237.90 7.63L235.56 7.63C235.45 7.63 235.44 7.63 235.44 7.45C235.42 6.75 235.41 6.06 235.41 5.46C235.41 5.12 235.41 3.71 235.49 3.71C236.73 3.71 239.23 3.75 239.23 3.81C239.23 3.99 239.19 4.83 239.19 4.89C239.19 5.04 239.26 5.10 239.44 5.10C239.64 5.10 239.71 5.08 239.71 4.94C239.71 3.85 239.76 3.36 239.76 3.09C239.76 2.91 239.68 2.90 239.48 2.90C239.29 2.90 239.29 2.95 239.26 3.11C239.25 3.25 239.32 3.25 238.41 3.25C237.79 3.25 235.65 3.29 234.88 3.29C234.39 3.29 233.45 3.25 233.35 3.25C233.23 3.25 233.17 3.30 233.17 3.49C233.17 3.72 233.24 3.74 233.41 3.74L234.07 3.74C234.12 3.74 234.19 4.79 234.19 5.71C234.19 5.80 234.25 8.27 234.25 9.83L234.25 11.17C234.25 11.84 234.22 12.18 234.19 12.18L233.34 12.18C233.11 12.18 233.06 12.21 233.06 12.39ZM258.54 5.77C258.54 9.07 263.52 8.20 263.52 10.65C263.52 11.59 262.68 12.31 261.70 12.31C260.88 12.31 259.28 11.83 259.25 11.47L259.17 10.15C259.15 9.97 259.08 9.91 258.90 9.91L258.83 9.91C258.62 9.91 258.62 10.00 258.62 10.12C258.62 10.32 258.73 11.66 258.76 12.17C258.78 12.38 260.04 12.85 261.58 12.85C263.14 12.85 264.75 11.87 264.75 10.11C264.75 6.79 259.78 7.87 259.78 5.32C259.78 4.31 260.57 3.56 261.60 3.56C262.63 3.56 263.72 4.58 263.72 4.89C263.72 5.01 263.68 5.73 263.68 5.78C263.68 5.92 263.72 5.99 263.98 5.99C264.22 5.99 264.24 5.94 264.24 5.75C264.24 5.04 264.32 3.68 264.32 3.53C264.32 3.30 264.28 3.29 264.01 3.29C263.79 3.29 263.77 3.32 263.76 3.53C263.76 3.61 263.75 3.78 263.70 3.78C263.65 3.78 263.56 3.74 263.49 3.68C262.70 3.14 262.08 3.08 261.58 3.08C260.05 3.08 258.54 4.17 258.54 5.77ZM272.58 12.39C272.58 12.63 272.62 12.68 272.82 12.68C273.14 12.68 273.90 12.64 274.61 12.64C275.27 12.64 276.07 12.68 276.29 12.68C276.46 12.68 276.49 12.61 276.49 12.40C276.49 12.24 276.46 12.18 276.29 12.18L275.32 12.18C275.23 12.18 275.20 9.55 275.20 7.76L275.20 5.87C275.20 5.14 275.23 3.70 275.32 3.70L276.23 3.70C276.46 3.70 276.49 3.68 276.49 3.49C276.49 3.25 276.46 3.19 276.29 3.19C275.97 3.19 275.30 3.23 274.64 3.23C273.83 3.23 273.11 3.19 272.89 3.19C272.71 3.19 272.64 3.21 272.64 3.44C272.64 3.68 272.72 3.70 272.89 3.70L273.81 3.70C273.85 3.70 273.92 4.79 273.92 5.71L273.92 7.08C273.92 8.92 273.91 12.18 273.80 12.18L272.87 12.18C272.65 12.18 272.58 12.19 272.58 12.39ZM284.31 12.39C284.31 12.63 284.34 12.68 284.54 12.68C284.77 12.68 285.28 12.64 285.70 12.64C286.12 12.64 286.61 12.68 286.93 12.68C287.10 12.68 287.13 12.61 287.13 12.40C287.13 12.24 287.10 12.18 286.93 12.18L285.96 12.18C285.91 12.18 285.89 11.54 285.89 10.79C285.89 8.96 285.94 6.13 286.01 4.28C286.03 3.88 286.06 3.91 286.20 4.27L289.46 12.32C289.56 12.54 289.63 12.74 289.74 12.74C289.84 12.74 289.91 12.63 290.00 12.45C290.33 11.79 290.51 11.75 290.78 11.09L293.37 4.47C293.50 4.16 293.54 4.02 293.55 4.47C293.58 5.66 293.62 8.47 293.62 9.74C293.62 10.99 293.58 12.18 293.52 12.18L292.89 12.18C292.67 12.18 292.60 12.19 292.60 12.39C292.60 12.63 292.63 12.68 292.82 12.68C293.02 12.68 293.72 12.64 294.32 12.64C294.74 12.64 295.50 12.68 295.82 12.68C295.99 12.68 296.02 12.61 296.02 12.40C296.02 12.22 295.96 12.18 295.79 12.18L295.06 12.18C294.95 12.18 294.85 8.44 294.85 6.03L294.85 4.77C294.85 4.17 294.88 3.77 294.92 3.70L295.58 3.70C295.81 3.70 295.85 3.68 295.85 3.49C295.85 3.25 295.83 3.19 295.64 3.19C295.32 3.19 294.63 3.23 294.21 3.23L293.54 3.23C293.31 3.23 293.29 3.29 293.17 3.58L290.43 10.72C290.35 10.95 290.32 11.02 290.21 10.74L287.27 3.40C287.20 3.22 287.14 3.19 287 3.19C286.92 3.19 286.43 3.23 286.12 3.23C285.61 3.23 284.76 3.19 284.56 3.19C284.42 3.19 284.42 3.26 284.42 3.47C284.42 3.64 284.42 3.70 284.56 3.70L285.26 3.70C285.53 3.70 285.53 3.72 285.53 3.84C285.53 4.82 285.32 9.94 285.28 10.79C285.24 11.55 285.24 12.18 285.18 12.18L284.61 12.18C284.38 12.18 284.31 12.19 284.31 12.39ZM303.91 3.51C303.91 3.75 303.95 3.79 304.16 3.79L305.09 3.77C305.14 3.77 305.14 4.47 305.14 5.24L305.14 5.96C305.14 7.70 305.13 12.18 305.02 12.18L304.35 12.18C304.12 12.18 304.05 12.19 304.05 12.39C304.05 12.63 304.07 12.68 304.26 12.68C304.39 12.68 305.37 12.64 305.79 12.64C306.21 12.64 307.08 12.68 307.40 12.68C307.57 12.68 307.59 12.61 307.59 12.40C307.59 12.24 307.57 12.18 307.40 12.18L306.40 12.18C306.36 12.18 306.35 10.60 306.35 9.58L306.35 8.65C306.35 8.57 306.35 8.54 306.45 8.54C306.84 8.54 307.16 8.58 307.66 8.58C309.65 8.58 311.05 7.83 311.05 6.01C311.05 4.09 309.57 3.22 307.65 3.22C307.33 3.22 306.24 3.29 305.82 3.29C305.58 3.29 304.39 3.26 304.16 3.26C303.98 3.26 303.91 3.28 303.91 3.51ZM306.36 8.05L306.36 4.40C306.36 4.05 306.38 3.70 306.42 3.68C306.54 3.67 306.71 3.67 306.85 3.67C308.50 3.67 309.76 4.47 309.76 5.80C309.76 7.57 308.43 8.19 306.85 8.19C306.60 8.19 306.36 8.16 306.36 8.05ZM318.81 12.39C318.81 12.63 318.84 12.68 319.03 12.68C319.35 12.68 320.32 12.64 320.74 12.64C321.16 12.64 325.51 12.68 325.84 12.68C326.10 12.68 326.17 12.66 326.19 12.49C326.24 12.08 326.48 10.72 326.48 10.60C326.48 10.47 326.33 10.44 326.16 10.43C326.06 10.42 325.98 10.46 325.96 10.56L325.79 11.76C325.75 12.05 325.74 12.03 325.51 12.04C325.36 12.05 322.85 12.12 321.43 12.12C321.38 12.12 321.34 11.38 321.34 10.54L321.34 6.66C321.34 5.40 321.36 3.70 321.45 3.70L322.43 3.70C322.67 3.70 322.70 3.63 322.70 3.44C322.70 3.23 322.69 3.19 322.45 3.19C322.13 3.19 321.19 3.23 320.77 3.23C320.35 3.23 319.41 3.19 319.19 3.19C318.96 3.19 318.91 3.22 318.91 3.44C318.91 3.65 318.95 3.70 319.14 3.70L319.97 3.70C320.01 3.70 320.04 4.23 320.04 4.90L320.04 8.13C320.04 10.07 320.01 12.18 319.93 12.18L319.09 12.18C318.86 12.18 318.81 12.21 318.81 12.39ZM334.10 12.39C334.10 12.63 334.12 12.68 334.32 12.68C334.64 12.68 335.61 12.64 336.03 12.64C336.45 12.64 340.96 12.68 341.28 12.68C341.40 12.68 341.56 12.66 341.56 12.49C341.56 12.07 341.60 11.23 341.60 10.53C341.60 10.39 341.45 10.39 341.32 10.39C341.21 10.39 341.08 10.39 341.08 10.51C341.07 11.06 341.07 11.41 341.04 11.76C341.01 12.01 341.01 12.04 340.91 12.04C340.76 12.04 338.13 12.08 336.63 12.08C336.56 12.08 336.52 10.11 336.48 8.26C336.48 8.06 336.52 8.09 336.66 8.09L338.94 8.09C339.64 8.09 339.67 8.20 339.67 8.30L339.67 9.00C339.67 9.14 339.85 9.14 339.96 9.14C340.06 9.14 340.19 9.13 340.19 9.02C340.19 8.83 340.16 8.33 340.16 7.83C340.16 7.32 340.19 6.83 340.19 6.71C340.19 6.59 340.05 6.58 339.95 6.58C339.84 6.58 339.67 6.59 339.67 6.72L339.67 7.45C339.67 7.62 339.22 7.63 338.94 7.63L336.60 7.63C336.49 7.63 336.48 7.63 336.48 7.45C336.46 6.75 336.45 6.06 336.45 5.46C336.45 5.12 336.45 3.71 336.53 3.71C337.76 3.71 340.27 3.75 340.27 3.81C340.27 3.99 340.23 4.83 340.23 4.89C340.23 5.04 340.30 5.10 340.48 5.10C340.68 5.10 340.75 5.08 340.75 4.94C340.75 3.85 340.80 3.36 340.80 3.09C340.80 2.91 340.72 2.90 340.52 2.90C340.33 2.90 340.33 2.95 340.30 3.11C340.28 3.25 340.35 3.25 339.44 3.25C338.83 3.25 336.69 3.29 335.92 3.29C335.43 3.29 334.49 3.25 334.39 3.25C334.26 3.25 334.21 3.30 334.21 3.49C334.21 3.72 334.28 3.74 334.45 3.74L335.10 3.74C335.16 3.74 335.23 4.79 335.23 5.71C335.23 5.80 335.29 8.27 335.29 9.83L335.29 11.17C335.29 11.84 335.26 12.18 335.23 12.18L334.38 12.18C334.15 12.18 334.10 12.21 334.10 12.39Z"></path></g></svg>